<?xml version="1.0" encoding="utf-8"?>
<!-- Generator: Adobe Illustrator 24.0.1, SVG Export Plug-In . SVG Version: 6.00 Build 0)  -->
<svg version="1.1" id="Layer_1" xmlns="http://www.w3.org/2000/svg" xmlns:xlink="http://www.w3.org/1999/xlink" x="0px" y="0px"
	 viewBox="0 0 24.77 24.77" style="enable-background:new 0 0 24.77 24.77;" xml:space="preserve">
<style type="text/css">
	.st0{clip-path:url(#SVGID_2_);fill:none;stroke:#ed1c24;stroke-miterlimit:10;}
</style>
<g>
	<defs>
		<rect id="SVGID_1_" y="0" width="24.77" height="24.77"/>
	</defs>
	<clipPath id="SVGID_2_">
		<use xlink:href="#SVGID_1_"  style="overflow:visible;"/>
	</clipPath>
	<path class="st0" d="M23.83,19.05l-3.81-3.81c-0.57-0.57-1.48-0.59-2.02-0.05l-2.28,2.28c-0.21,0.21-1.19-0.22-2.5-1.17
		c-0.94-0.71-1.79-1.46-2.53-2.19c-0.01-0.01-0.01-0.01-0.02-0.02c-0.01,0-0.01-0.01-0.02-0.02c-0.73-0.74-1.48-1.59-2.19-2.53
		c-0.96-1.31-1.38-2.29-1.17-2.5l2.28-2.28c0.54-0.54,0.52-1.45-0.05-2.02L5.73,0.94C5.16,0.37,4.25,0.35,3.71,0.89
		c0,0-1.86,1.87-2.49,2.49c0,0-1.55,1.76-0.1,5.13c1.42,3.3,3.01,5.93,5.67,8.75c0.05,0.05,0.1,0.1,0.14,0.15
		c0,0.01,0.01,0.01,0.01,0.01c0.35,0.37,0.76,0.75,1.17,1.11c0.74,0.66,1.46,1.25,2.2,1.79c0.01,0.01,0.02,0.01,0.02,0.01
		c1.85,1.35,3.75,2.37,5.94,3.31c3.36,1.45,5.13-0.1,5.13-0.1c0.62-0.62,2.49-2.49,2.49-2.49C24.42,20.52,24.4,19.62,23.83,19.05z"
		/>
</g>
</svg>
