<svg id="Layer_1" data-name="Layer 1" xmlns="http://www.w3.org/2000/svg" viewBox="0 0 500 500"><defs><style>.cls-1{fill:none;stroke:#4646af;stroke-miterlimit:10;stroke-width:7.841px;}</style></defs><title>MMBL ICONS 17-10-2021</title><path class="cls-1" d="M480.29,47.69,419.7,109.86s-12.31,17.35-44.2,9L289,100.35S235.44,94.76,215.94,116l-62,64.35s-23,26.86,2.73,49.24c0,0,21.83,22.6,47.57,3.75l48.12-45s12.87-11.89,27.42,2.37L400.68,313.42s14.55,16.09,34.13,0l50.27-48.16"/><path class="cls-1" d="M14.92,45.31l67.92,70.16s9.51,12.3,29.1,6.7c0,0,91.15-33.23,120.84-16.61"/><path class="cls-1" d="M468.56,340.28l-37.11,39.54s-11.19,12.54-26.86,0L292.18,270.08"/><path class="cls-1" d="M380.37,386.7S365.53,422,341.55,405.18L230.78,302.33"/><path class="cls-1" d="M323.65,388.56s10.61,17.92-12,34.6c0,0-26.06,13.21-43.44,1.74"/><path class="cls-1" d="M147.65,328.36l-29.53,27.92s-9.73,17.4,5.56,29.11c0,0,22.58,16.93,42-7.05l27.8-27.8s10.78-17-7-26.06C186.57,324.48,167.46,312.78,147.65,328.36Z"/><path class="cls-1" d="M193.52,350.54c11.82-7.3,29.89,5.19,29.89,5.19,15.63,13.87,0,29.66,0,29.66l-31.78,31.87s-14.79,15.08-29.38,2.67c0,0-17.37-14.07-5.38-33.39"/><path class="cls-1" d="M117.33,358c-16.78,11.57-32.92-5.81-32.92-5.81-14.25-15.77,3.48-35,3.48-35l18.76-16.43s20.15-12.24,34.75,1.58c0,0,14.25,12.54,6.25,26"/><path class="cls-1" d="M220.25,388.56s11.84-10.5,20.53-2l21.89,23.17s14.95,16.23-2.78,37.43c0,0-22.23,19.11-43.95-3.47,0,0-24.94-21-16-34"/><path class="cls-1" d="M103,303.91s8.82-9.32-4.38-21.48c0,0-15.46-16.43-39.62,0,0,0-22.24,16-7.29,34.4,0,0,15.69,20.4,33.49,3.74"/><line class="cls-1" x1="15.56" y1="240.13" x2="59.04" y2="282.43"/></svg>