<svg id="Layer_1" data-name="Layer 1" xmlns="http://www.w3.org/2000/svg" viewBox="0 0 500 500"><defs><style>.cls-1{fill:none;stroke:#4646af;stroke-miterlimit:10;stroke-width:7.841px;}</style></defs><title>MMBL ICONS 17-10-2021</title><polyline class="cls-1" points="324.77 457.66 336.1 395.45 400.68 401.33"/><line class="cls-1" x1="404.28" y1="488.39" x2="336.1" y2="395.45"/><polyline class="cls-1" points="446.35 255.63 390.21 226.53 414.79 166.52"/><line class="cls-1" x1="499.07" y1="188.65" x2="390.21" y2="226.53"/><polyline class="cls-1" points="175.23 461.09 163.9 398.88 99.32 404.76"/><line class="cls-1" x1="95.72" y1="491.82" x2="163.9" y2="398.88"/><polyline class="cls-1" points="53.65 259.06 109.79 229.96 85.21 169.95"/><line class="cls-1" x1="0.93" y1="192.07" x2="109.79" y2="229.96"/><polyline class="cls-1" points="293.19 79.98 247.26 123.45 198.66 80.51"/><line class="cls-1" x1="247.25" y1="8.18" x2="247.26" y2="123.45"/><circle class="cls-1" cx="246.82" cy="201.22" r="34.23"/><line class="cls-1" x1="208.99" y1="333.67" x2="286.72" y2="333.67"/><path class="cls-1" d="M199.18,333.67H159.61V312.24s-8.48-38.36,88.24-42.68c96.73,4.32,88.25,42.68,88.25,42.68v21.43H296.53"/></svg>