<svg id="Layer_1" data-name="Layer 1" xmlns="http://www.w3.org/2000/svg" viewBox="0 0 500 500"><defs><style>.cls-1{fill:none;stroke:#4646af;stroke-width:9px;stroke-miterlimit:10;}.cls-1{fill:none;stroke:#4646af;stroke-width:9px;stroke-miterlimit:20;}.cls-2{fill:none;stroke:#000;stroke-width: 7.8431px;stroke-miterlimit:20;}</style></defs><title>MMBL ICONS 17-10-2021</title><line class="cls-1" x1="249.2" y1="74.46" x2="249.2" y2="14.26"/><line class="cls-1" x1="55.82" y1="211.09" x2="116.81" y2="211.09"/><line class="cls-1" x1="383.19" y1="211.09" x2="444.18" y2="211.09"/><line class="cls-1" x1="115.66" y1="66.88" x2="159.15" y2="111.98"/><line class="cls-1" x1="383.19" y1="67.27" x2="338.69" y2="111.46"/><line class="cls-1" x1="388.8" y1="345.05" x2="345.19" y2="302.33"/><line class="cls-1" x1="110.01" y1="344.72" x2="151.43" y2="300.03"/><path class="cls-1" d="M210,389h80.86s8.93-1.48,8.93,13.65v33s-3.88,51.64-50.64,50.11c0,0-48.58-.51-48.58-48.88V401.37S200.58,389,210,389Z"/><path class="cls-1" d="M166.72,151.69s31.61-50.58,85.46-50.58c0,0,52.52,2.29,83.37,49.24"/><path class="cls-1" d="M335.55,155.75S365.65,216,325,266.24c0,0-25.16,39.65-26.89,64.13,0,0,1,15.86-10,16.89h-37v-71l36.15-60.33"/><path class="cls-1" d="M165.31,157.35s-31.75,53.74,11.93,108.89c0,0,25.16,39.64,26.89,64.12,0,0-1,15.86,10,16.89h37v-71L215,215.9"/></svg>