<svg id="Layer_1" data-name="Layer 1" xmlns="http://www.w3.org/2000/svg" viewBox="0 0 500 500"><defs><style>.cls-1{fill:#4646af;}.cls-2{fill:none;stroke:#000;stroke-width: 7.8431px;stroke-miterlimit:20;}.cls-1{fill:#4646af;}.cls-2{fill:none;stroke:#232020;stroke-linecap:round;stroke-linejoin:round;}</style></defs><title>MMBL ICONS 17-10-2021</title><path class="cls-1" d="M223.84,111.8A160.26,160.26,0,1,0,384.09,272.06,160.25,160.25,0,0,0,223.84,111.8Zm42.61,161.11a40.49,40.49,0,1,1-31-39.22l2.34-7.48L273,261.13l-7.79,1.95A39.88,39.88,0,0,1,266.45,272.91Z"/><g id="target_goal" data-name="target goal"><line class="cls-2" x1="256" y1="242.97" x2="407.44" y2="91.51"/><polygon class="cls-2" points="238.06 225.02 226.1 272.88 273.91 260.89 238.06 225.02"/><path class="cls-2" d="M449.29,1.86l-47.82,47.8s-12,24,6,41.85l47.83-47.79Z"/><path class="cls-2" d="M455.27,43.72,407.44,91.51c17.95,17.95,41.85,6,41.85,6l47.82-47.83Z"/><line class="cls-2" x1="367.77" y1="445.36" x2="409.42" y2="496.06"/><line class="cls-2" x1="42.76" y1="496.05" x2="84.41" y2="445.35"/><path class="cls-2" d="M359.73,94.14C272.3,28.6,147.79,35.53,68.27,115.05c-87.18,87.19-87.18,228.46,0,315.64s228.46,87.19,315.63,0c79.53-79.52,86.48-204,20.92-291.47"/><path class="cls-2" d="M200.89,242.26a35.94,35.94,0,0,0-3,2.43,39.86,39.86,0,0,0,56.37,56.38c.93-.93,1.62-2,2.45-3"/><path class="cls-2" d="M267.24,186.63a95.64,95.64,0,1,0,45.09,45.09"/><path class="cls-2" d="M314,139.86A159.43,159.43,0,1,0,359.1,185"/></g></svg>