<svg id="Layer_1" data-name="Layer 1" xmlns="http://www.w3.org/2000/svg" viewBox="0 0 500 500"><defs><style>.cls-1{fill:none;stroke:#231f20;stroke-miterlimit:10;stroke-width:7.841px;}</style></defs><title>GOLD CITY ICONS 17-10-2021</title><path class="cls-1" d="M139,78V52.5A29.62,29.62,0,0,1,168.53,23H352.76A29.61,29.61,0,0,1,382.29,52.5V316"/><path class="cls-1" d="M255.45,432.38h-151A25,25,0,0,1,79.59,407.5V106.71a28.94,28.94,0,0,1,28.85-28.86H296.85a27.64,27.64,0,0,1,27.56,27.56V300.65"/><path class="cls-1" d="M382.32,316a88.17,88.17,0,1,0,33.2,43.61"/><polyline class="cls-1" points="300.76 381.32 325.36 406.75 410.53 328.62"/><line class="cls-1" x1="290.06" y1="289.79" x2="117.82" y2="289.79"/><line class="cls-1" x1="261.76" y1="335.16" x2="117.82" y2="335.16"/><line class="cls-1" x1="203.94" y1="379.68" x2="117.82" y2="379.68"/><path class="cls-1" d="M228,154.44s-4.18-18.65-21.12-22.41c0,0-22-5.18-28.82,12.23,0,0-7.94,17.42,11.18,29.52a22.82,22.82,0,0,0,3.72,1.89c4.83,2,18.57,7.51,25.1,10,0,0,13.52,5.47,11.45,20.13a24.32,24.32,0,0,1-15,18.8A32,32,0,0,1,194,226.27a23.79,23.79,0,0,1-12.44-7.86c-4-4.8-8.69-12.84-7.64-23.2"/><line class="cls-1" x1="201.76" y1="111.44" x2="201.76" y2="249.09"/></svg>