<svg id="Layer_1" data-name="Layer 1" xmlns="http://www.w3.org/2000/svg" viewBox="0 0 500 500"><defs><style>.cls-1{fill:#b11116;stroke-width:7.841px;}.cls-2,.cls-3,.cls-4,.cls-5{fill:none;stroke-width:7.841px;}.cls-2,.cls-3,.cls-4{stroke:#000;stroke-width:7.841px;}.cls-2,.cls-4,.cls-5{stroke-miterlimit:10;stroke-width:7.841px;}.cls-3,.cls-4{stroke-linecap:round;}.cls-3{stroke-linejoin:round;stroke-width:7.841px;}.cls-5{stroke:#b11116;stroke-width:7.841px;}</style></defs><title>MMBL ICONS 17-10-2021</title><path class="cls-1" d="M292,469.08a74.33,74.33,0,0,1-45.42,5.07l-80.37-22.56a36.22,36.22,0,0,0-27,3l-6.89,3.69,1.84-67.08a72,72,0,0,1,73.16-3.9l4.82,2.49a63.3,63.3,0,0,0,27.19,7l47.38,1.3A28.73,28.73,0,0,1,314,421l-70.56-2a6.55,6.55,0,0,0-.36,13.1l77.87,2.14h.18a6.56,6.56,0,0,0,6.55-6.37,41,41,0,0,0-.64-8.5l52.64-24.87.15-.07a20,20,0,0,1,22.64,3.17Z"/><circle class="cls-2" cx="264.28" cy="236.31" r="105.11"/><line class="cls-3" x1="264.28" y1="92.21" x2="264.28" y2="9.19"/><line class="cls-3" x1="304.83" y1="103.34" x2="304.83" y2="46.28"/><line class="cls-3" x1="223.73" y1="103.34" x2="223.73" y2="46.28"/><path class="cls-4" d="M292,469.08a74.33,74.33,0,0,1-45.42,5.07l-80.37-22.56a36.22,36.22,0,0,0-27,3l-6.89,3.69,1.84-67.08a72,72,0,0,1,73.16-3.9l4.82,2.49a63.3,63.3,0,0,0,27.19,7l47.38,1.3A28.73,28.73,0,0,1,314,421l-70.56-2a6.55,6.55,0,0,0-.36,13.1l77.87,2.14h.18a6.56,6.56,0,0,0,6.55-6.37,41,41,0,0,0-.64-8.5l52.64-24.87.15-.07a20,20,0,0,1,22.64,3.17Z"/><polygon class="cls-3" points="84.73 363.18 135.26 365 131.73 479.47 80.55 477.59 84.73 363.18"/><path class="cls-5" d="M203.77,275.53l-.19-80.34h36.57s24.06.95,21,26c0,0-1.14,14.59-22,16.86l-35.52-.19"/><line class="cls-5" x1="239.2" y1="238.01" x2="264.97" y2="275.53"/><path class="cls-5" d="M317.26,222.47s-31.45-14.21-35.62,3.6c0,0-5.43,13.65,15,17.94,0,0,24.64,2.15,19.71,19.07,0,0-5.18,12.89-20.72,10.87,0,0-16.93-4.61-22.67-10.39"/><circle class="cls-1" cx="333.24" cy="270.16" r="4.64"/></svg>