<svg id="Layer_1" data-name="Layer 1" xmlns="http://www.w3.org/2000/svg" viewBox="0 0 500 500"><defs><style>.cls-1{fill:#b11116;stroke-miterlimit:10;stroke-width:7.841px;}.cls-2{fill:none;stroke:#000;stroke-miterlimit:10;stroke-width:4.841px;}</style></defs><title>MMBL ICONS 17-10-2021</title><path class="cls-1" d="M348.49,416.39a51.42,51.42,0,0,1-51.56-51.64c.08-28,23.69-51.41,51.67-51.33s51.53,23.75,51.36,51.65A51.56,51.56,0,0,1,348.49,416.39Zm-9.11-39c-2.7-3.43-5.16-6.51-7.58-9.62-5.49-7-5.34-6.88-12.26-1.47-2.66,2.09-2.33,3.41-.51,5.66,6.3,7.8,12.59,15.63,18.63,23.64,2.33,3.09,3.4,2.63,5.27-.35,9.77-15.5,19.69-30.89,29.57-46.32,4.19-6.53,4.05-6.32-2.29-10.76-3.38-2.37-4.84-1.67-6.88,1.64C355.63,352.29,347.61,364.55,339.38,377.41Z"/><path class="cls-1" d="M265.23,177.7c0,6.27,0,6.28,6.1,6.28q45.39,0,90.8,0c2.79,0,4.76,0,4.74,3.87-.13,40-.07,79.93-.07,119.88a5.33,5.33,0,0,1-.37,2.7,1.79,1.79,0,0,1-.56.57c1.34.45,2.66.92,3.94,1.47.49-.55.49-1.89.49-4.3q0-61.18.08-122.36a10.79,10.79,0,0,0-3.5-8.38q-47.94-47.73-95.69-95.63a9.11,9.11,0,0,0-7.07-3q-67.65.15-135.33,0c-4,0-5,1.09-5,5q.15,151.76,0,303.52c0,4.51,1.36,5.46,5.62,5.45q82.49-.19,165-.09a14.13,14.13,0,0,0,3.8-.14,2.18,2.18,0,0,0,.49-.19l-1.8-3.54h-5.69q-78.2.06-156.38,0c-8.08,0-7.27.81-7.27-7q0-146.26,0-292.5c0-2.23-.07-4.46-.1-6.68l.11-.11q67,.06,134.12.08a8.78,8.78,0,0,0,1.41-.18,3.69,3.69,0,0,1,.46-.08l1.09.33c.23.37.46.74.71,1.1v9.82c0,1.93,0,3.94,0,6,0,1.34,0,2.72,0,4.09s0,2.54,0,3.83c.05,21.21.1,44.35-.05,47.52Z"/><path class="cls-2" d="M292.93,359.06c-.62-1.17-2.13-1.17-5.75-1.17q-63.62,0-127.24.07c-3.66,0-5.43-.77-4.78-4.67a8.08,8.08,0,0,0,0-2.86c-.94-4.93,1.2-5.9,5.9-5.88,43.86.19,87.7.13,131.56.07h3.88l-.1.27c-1.87,4.81-3.5,14.51-3.47,14.17"/><path class="cls-2" d="M495,250.2c.1,135.14-109.55,243.52-242.76,244.68C115.39,496.09,3.2,384.39,5,246.41,6.75,114.89,114.81,3.37,253.63,5.13,385.77,6.79,495.23,114.67,495,250.2Z"/><path class="cls-2" d="M155.06,277.55c.31-8.45.06-8.46,8.55-8.46,57.38,0,114.75.06,172.13-.13,4.55,0,5.5,1.38,5.32,5.56-.3,7.82-.08,7.83-7.77,7.83h-85.1c-29.33,0-58.65-.07-88,.08C156.41,282.45,154.92,281.73,155.06,277.55Z"/><path class="cls-2" d="M348.49,416.39a51.42,51.42,0,0,1-51.56-51.64c.08-28,23.69-51.41,51.67-51.33s51.53,23.75,51.36,51.65A51.56,51.56,0,0,1,348.49,416.39Zm-9.11-39c-2.7-3.43-5.16-6.51-7.58-9.62-5.49-7-5.34-6.88-12.26-1.47-2.66,2.09-2.33,3.41-.51,5.66,6.3,7.8,12.59,15.63,18.63,23.64,2.33,3.09,3.4,2.63,5.27-.35,9.77-15.5,19.69-30.89,29.57-46.32,4.19-6.53,4.05-6.32-2.29-10.76-3.38-2.37-4.84-1.67-6.88,1.64C355.63,352.29,347.61,364.55,339.38,377.41Z"/><path class="cls-2" d="M247.16,193.69c29.34,0,58.67.09,88-.09,4,0,5.08,1.11,4.94,5-.28,8.17-.06,8.18-8.38,8.18-57.22,0-120.69-.07-177.92.13V193.62C183.29,193.75,217.67,193.69,247.16,193.69Z"/><path class="cls-2" d="M247.21,244.42c-29.32,0-58.65-.07-88,.08-3.77,0-5.32-.61-5.14-4.83.33-8,.07-8,8.06-8,57.37,0,114.74.08,172.12-.14,5,0,5.7.48,5.73,6.06,0,.62,0,1.27,0,1.9-.18,5.2-.75,5.07-4.83,5-24.7-.21-49.4-.1-74.11-.1Z"/><path class="cls-2" d="M264.58,82.59l.71,1.1C265.05,83.33,264.82,83,264.58,82.59Z"/><path class="cls-2" d="M343.08,308.5A56.61,56.61,0,0,0,315.17,320H163.49c-8.4,0-8.21,0-8.38-8.64-.1-3.61,1-4.5,4.52-4.49,53.74.11,107.47,0,161.22.11C328.27,306.94,335.57,307,343.08,308.5Z"/><path class="cls-2" d="M265.23,177.7c0,6.27,0,6.28,6.1,6.28q45.39,0,90.8,0c2.79,0,4.76,0,4.74,3.87-.13,40-.07,79.93-.07,119.88a5.33,5.33,0,0,1-.37,2.7,1.79,1.79,0,0,1-.56.57c1.34.45,2.66.92,3.94,1.47.49-.55.49-1.89.49-4.3q0-61.18.08-122.36a10.79,10.79,0,0,0-3.5-8.38q-47.94-47.73-95.69-95.63a9.11,9.11,0,0,0-7.07-3q-67.65.15-135.33,0c-4,0-5,1.09-5,5q.15,151.76,0,303.52c0,4.51,1.36,5.46,5.62,5.45q82.49-.19,165-.09a14.13,14.13,0,0,0,3.8-.14,2.18,2.18,0,0,0,.49-.19l-1.8-3.54h-5.69q-78.2.06-156.38,0c-8.08,0-7.27.81-7.27-7q0-146.26,0-292.5c0-2.23-.07-4.46-.1-6.68l.11-.11q67,.06,134.12.08a8.78,8.78,0,0,0,1.41-.18,3.69,3.69,0,0,1,.46-.08l1.09.33c.23.37.46.74.71,1.1v9.82c0,1.93,0,3.94,0,6,0,1.34,0,2.72,0,4.09s0,2.54,0,3.83c.05,21.21.1,44.35-.05,47.52Z"/><path class="cls-2" d="M265.29,154.93v14.69h-4.71c-.73,0-1.58,0-2.57,0q-48.84,0-97.67,0H154L153.8,155c35.29,0,70.57.08,105.85-.1Z"/></svg>