<?xml version="1.0" encoding="utf-8"?>
<!-- Generator: Adobe Illustrator 24.0.1, SVG Export Plug-In . SVG Version: 6.00 Build 0)  -->
<svg version="1.1" id="Layer_1" xmlns="http://www.w3.org/2000/svg" xmlns:xlink="http://www.w3.org/1999/xlink" x="0px" y="0px"
	 viewBox="0 0 14.74 24.79" style="enable-background:new 0 0 14.74 24.79;" xml:space="preserve">
<style type="text/css">
	.st0{clip-path:url(#SVGID_2_);fill:none;stroke:#ed1c24;stroke-miterlimit:10;}
</style>
<g>
	<defs>
		<rect id="SVGID_1_" y="0" width="14.74" height="24.79"/>
	</defs>
	<clipPath id="SVGID_2_">
		<use xlink:href="#SVGID_1_"  style="overflow:visible;"/>
	</clipPath>
	<path class="st0" d="M0.5,12.23v2.26c0,3.78,3.09,6.87,6.87,6.87s6.87-3.09,6.87-6.87v-2.26"/>
	<line class="st0" x1="7.37" y1="21.36" x2="7.37" y2="24.29"/>
	<line class="st0" x1="13.72" y1="24.29" x2="1.01" y2="24.29"/>
	<path class="st0" d="M7.74,19.4H7c-2.66,0-4.84-2.18-4.84-4.84V5.34C2.16,2.68,4.33,0.5,7,0.5h0.74c2.66,0,4.84,2.18,4.84,4.84
		v9.21C12.58,17.22,10.4,19.4,7.74,19.4z"/>
	<line class="st0" x1="2.16" y1="6.28" x2="4.93" y2="6.28"/>
	<line class="st0" x1="2.24" y1="8.73" x2="5.01" y2="8.73"/>
	<line class="st0" x1="2.16" y1="11.17" x2="4.93" y2="11.17"/>
	<line class="st0" x1="2.24" y1="13.62" x2="5.01" y2="13.62"/>
	<line class="st0" x1="9.73" y1="6.28" x2="12.5" y2="6.28"/>
	<line class="st0" x1="9.81" y1="8.73" x2="12.58" y2="8.73"/>
	<line class="st0" x1="9.73" y1="11.17" x2="12.5" y2="11.17"/>
	<line class="st0" x1="9.81" y1="13.62" x2="12.58" y2="13.62"/>
</g>
</svg>
