<svg id="Layer_1" data-name="Layer 1" xmlns="http://www.w3.org/2000/svg" viewBox="0 0 500 500"><defs><style>.cls-1{fill:#4646af;}.cls-2{fill:none;stroke:#000;stroke-width: 7.8431px;stroke-miterlimit:20;}.cls-1{fill:#4646af;}.cls-2,.cls-3{fill:none;}.cls-2{stroke:#232020;stroke-linecap:round;stroke-linejoin:round;}.cls-3{stroke:#4646af;stroke-width:7px;stroke-miterlimit:10;}</style></defs><title>MMBL ICONS 17-10-2021</title><path class="cls-1" d="M251.48,119.74A129.23,129.23,0,1,0,380.71,249,129.23,129.23,0,0,0,251.48,119.74Zm-.35,177a47.48,47.48,0,1,1,47.48-47.48A47.49,47.49,0,0,1,251.13,296.7Z"/><path class="cls-2" d="M251.48,378.2C418.72,378.2,487.14,249,487.14,249S418.72,119.74,251.48,119.74,15.83,249,15.83,249,84.25,378.2,251.48,378.2Z"/><path class="cls-2" d="M210.36,229.34a45.74,45.74,0,1,0,21.49-21.49"/><line class="cls-3" x1="251.48" y1="74.13" x2="251.48" y2="13.32"/><line class="cls-3" x1="251.48" y1="74.13" x2="251.48" y2="13.32"/><line class="cls-3" x1="251.48" y1="74.13" x2="251.48" y2="13.32"/><line class="cls-3" x1="350.3" y1="89.33" x2="395.91" y2="43.72"/><line class="cls-3" x1="251.48" y1="74.13" x2="251.48" y2="13.32"/><line class="cls-3" x1="251.48" y1="74.13" x2="251.48" y2="13.32"/><line class="cls-3" x1="152.66" y1="89.33" x2="107.05" y2="43.72"/><line class="cls-3" x1="251.48" y1="423.81" x2="251.48" y2="484.62"/><line class="cls-3" x1="251.48" y1="423.81" x2="251.48" y2="484.62"/><line class="cls-3" x1="251.48" y1="423.81" x2="251.48" y2="484.62"/><line class="cls-3" x1="152.66" y1="408.6" x2="107.05" y2="454.21"/><line class="cls-3" x1="251.48" y1="423.81" x2="251.48" y2="484.62"/><line class="cls-3" x1="251.48" y1="423.81" x2="251.48" y2="484.62"/><line class="cls-3" x1="350.3" y1="408.6" x2="395.91" y2="454.21"/></svg>